<svg width="104" height="104" viewBox="0 0 104 104" fill="none" xmlns="http://www.w3.org/2000/svg">
<g clip-path="url(#clip0_2183_17963)">
<circle cx="52" cy="52" r="48" stroke="#B73E38"/>
<path fill-rule="evenodd" clip-rule="evenodd" d="M24.105 44.6101C24.105 44.2424 23.7822 43.9583 23.4175 44.005L17.1784 44.8049C15.6295 45.0035 14.5199 46.3988 14.6753 47.9527C14.7544 48.7438 15.1565 49.4671 15.7867 49.9518L16.1226 50.2102L15.3692 52.2506C14.1983 55.422 12.6396 58.4364 10.7288 61.2253L10.632 61.3664C9.88779 62.4526 9.47632 63.7309 9.44605 65.0451L9.27656 65.2145C9.09948 65.3916 9 65.6318 9 65.8822V69.9567C9 70.2072 9.09948 70.4473 9.27657 70.6244L9.44425 70.7921V72.251C9.44425 72.7725 9.86701 73.1952 10.3885 73.1952H30.8242H50.7986V94.4632C50.7986 94.7393 51.0224 94.9632 51.2986 94.9632C51.5747 94.9632 51.7986 94.7393 51.7986 94.4632V73.0265C52.0436 72.856 52.204 72.5722 52.204 72.251V70.7921L52.3717 70.6244C52.5488 70.4473 52.6483 70.2072 52.6483 69.9567V65.8822C52.6483 65.6318 52.5488 65.3916 52.3717 65.2145L52.2022 65.0451C52.172 63.7309 51.7605 62.4526 51.0163 61.3664L50.9195 61.2253C49.0087 58.4364 47.45 55.422 46.2791 52.2506L45.5257 50.2102L45.8616 49.9518C46.4918 49.4671 46.8939 48.7438 46.973 47.9527C47.1284 46.3988 46.0188 45.0035 44.4699 44.8049L38.2308 44.005C37.8661 43.9583 37.5433 44.2424 37.5433 44.6101V53.1994L37.4538 53.5686C36.9129 55.7996 35.3636 57.5372 33.3953 58.3944L33.3953 57.4026C33.7613 57.2911 33.9786 56.8816 33.8263 56.5006C33.725 56.2474 33.5118 56.062 33.2571 55.9919C34.0341 55.3134 34.5251 54.3155 34.5251 53.2029C34.5251 52.1115 34.0527 51.1305 33.3013 50.4531H34.4821C34.7137 50.4531 34.9691 50.2929 35.015 49.9996L35.0886 49.5296C35.1809 48.9401 35.1212 48.3394 34.9154 47.7764C34.7192 47.2397 34.1894 46.9152 33.6355 46.9152L28.0522 46.9152C27.5491 46.9152 27.0643 47.1891 26.8445 47.6572C26.5525 48.2789 26.4525 48.965 26.5579 49.6387L26.6152 50.0043C26.6607 50.295 26.9135 50.4531 27.1421 50.4531H28.3465C27.5951 51.1305 27.1227 52.1115 27.1227 53.2029C27.1227 54.3155 27.6137 55.3135 28.3908 55.9919C28.1362 56.062 27.923 56.2475 27.8218 56.5006C27.6694 56.8816 27.8867 57.2911 28.2527 57.4025L28.2526 58.3942C26.2845 57.537 24.7354 55.7995 24.1945 53.5686L24.105 53.5903L24.1945 53.5686L24.105 53.1994V44.6101ZM51.204 72.1846V70.769C51.204 70.5186 51.3035 70.2784 51.4806 70.1013L51.6483 69.9336V65.9053L51.3877 65.6447C51.2701 65.5271 51.204 65.3677 51.204 65.2014C51.204 64.0343 50.851 62.8944 50.1913 61.9317L50.0946 61.7905C48.1371 58.9337 46.5405 55.8457 45.341 52.597L44.4601 50.2115C44.3843 50.0061 44.4509 49.7754 44.6243 49.642L45.2519 49.1592C45.6636 48.8425 45.9263 48.37 45.978 47.8532C46.0795 46.8381 45.3546 45.9265 44.3427 45.7968L38.5433 45.0533V53.2591C38.5433 53.3667 38.5435 53.4768 38.5437 53.5893V53.5893C38.5475 55.3458 38.5525 57.6727 37.6793 59.5929C37.2062 60.6333 36.4726 61.5659 35.3462 62.2329C34.2244 62.8972 32.749 63.2768 30.8242 63.2768C28.9257 63.2768 27.4641 62.8966 26.348 62.2323C25.2279 61.5657 24.4917 60.6343 24.0119 59.5956C23.1019 57.6258 23.1037 55.2306 23.1049 53.4538L23.105 53.2591V45.0533L17.3056 45.7968C16.2937 45.9265 15.5688 46.8381 15.6703 47.8532C15.722 48.37 15.9847 48.8425 16.3964 49.1592L17.024 49.642C17.1974 49.7754 17.264 50.0061 17.1882 50.2115L16.3073 52.597C15.1078 55.8457 13.5111 58.9337 11.5537 61.7905L11.457 61.9317C10.7973 62.8944 10.4442 64.0343 10.4442 65.2014C10.4442 65.3676 10.3782 65.5271 10.2606 65.6447L10 65.9053V69.9336L10.1677 70.1013C10.3448 70.2784 10.4442 70.5186 10.4442 70.769V72.1952H30.8242H51.1598C51.1743 72.191 51.1891 72.1875 51.204 72.1846ZM30.8239 59.9777L30.8212 59.9776L30.808 59.9774C28.0852 59.8893 25.5981 58.4236 24.1901 56.1324C24.2857 57.1894 24.4888 58.2436 24.9197 59.1763C25.3284 60.061 25.9388 60.8251 26.8595 61.373C27.7841 61.9233 29.0575 62.2768 30.8242 62.2768C32.6199 62.2768 33.9073 61.9228 34.8367 61.3724C35.7614 60.8249 36.3675 60.062 36.769 59.179C37.1973 58.2372 37.3894 57.1723 37.4752 56.1046C36.0703 58.4118 33.5741 59.8889 30.8403 59.9774L30.8265 59.9776L30.8239 59.9777ZM28.0522 47.9152L33.6355 47.9152C33.8168 47.9152 33.9397 48.02 33.9762 48.1197C34.1242 48.5249 34.1665 48.9543 34.1006 49.375L34.0884 49.4531H27.5413C27.4748 48.9892 27.5458 48.5162 27.7496 48.0822C27.7888 47.9989 27.898 47.9152 28.0522 47.9152ZM30.8239 50.5017C29.3321 50.5017 28.1227 51.711 28.1227 53.2029C28.1227 54.6947 29.3321 55.904 30.8239 55.904C32.3157 55.904 33.5251 54.6947 33.5251 53.2029C33.5251 51.711 32.3157 50.5017 30.8239 50.5017ZM29.2527 56.9612H30.824H32.3953L32.3953 58.7059C31.8924 58.8651 31.3645 58.9582 30.8239 58.9772C30.2833 58.9582 29.7555 58.8651 29.2526 58.7059L29.2527 56.9612Z" fill="#838D97"/>
</g>
<defs>
<clipPath id="clip0_2183_17963">
<rect width="104" height="104" fill="white"/>
</clipPath>
</defs>
</svg>
